<svg width="25" height="25" viewBox="0 0 25 25" fill="none" xmlns="http://www.w3.org/2000/svg">
<path fill-rule="evenodd" clip-rule="evenodd" d="M12.4929 3.96032C10.153 1.91543 6.69252 1.49697 4.00521 3.79306C1.09842 6.27669 0.676093 10.4595 2.97471 13.4173C3.84724 14.5401 5.55023 16.2269 7.18684 17.7717C8.84261 19.3345 10.4946 20.8113 11.3092 21.5328L11.3247 21.5465C11.4013 21.6144 11.4967 21.6989 11.5881 21.7678C11.6975 21.8502 11.8547 21.9525 12.0645 22.0151C12.3434 22.0983 12.6432 22.0983 12.9221 22.0151C13.1319 21.9525 13.289 21.8502 13.3984 21.7678C13.4898 21.6989 13.5852 21.6144 13.6618 21.5465L13.6773 21.5328C14.492 20.8113 16.1439 19.3345 17.7997 17.7717C19.4363 16.2269 21.1393 14.5401 22.0118 13.4173C24.3016 10.4709 23.9445 6.25579 20.9709 3.78429C18.2537 1.52587 14.8301 1.91465 12.4929 3.96032ZM11.7333 6.02916C10.0283 4.03579 7.318 3.59316 5.30441 5.31362C3.2011 7.11073 2.91807 10.0851 4.55392 12.1901C5.31701 13.1721 6.90681 14.7571 8.55966 16.3172C10.1027 17.7737 11.6462 19.1579 12.4933 19.9097C13.3403 19.1579 14.8838 17.7737 16.4269 16.3172C18.0797 14.7571 19.6695 13.1721 20.4326 12.1901C22.0773 10.0737 21.8152 7.0866 19.6925 5.32239C17.6256 3.60445 14.9507 4.0446 13.2532 6.02916C13.0632 6.25127 12.7856 6.37914 12.4933 6.37914C12.201 6.37914 11.9233 6.25127 11.7333 6.02916Z" fill="#0D0D15"/>
</svg>
