<svg width="16" height="16" viewBox="0 0 16 16" fill="none" xmlns="http://www.w3.org/2000/svg">
<path fill-rule="evenodd" clip-rule="evenodd" d="M8.00002 2.66659C6.71136 2.66659 5.66669 3.71125 5.66669 4.99992C5.66669 6.28858 6.71136 7.33325 8.00002 7.33325C9.28869 7.33325 10.3334 6.28858 10.3334 4.99992C10.3334 3.71125 9.28869 2.66659 8.00002 2.66659ZM4.33336 4.99992C4.33336 2.97487 5.97498 1.33325 8.00002 1.33325C10.0251 1.33325 11.6667 2.97487 11.6667 4.99992C11.6667 7.02496 10.0251 8.66659 8.00002 8.66659C5.97498 8.66659 4.33336 7.02496 4.33336 4.99992ZM8.00002 10.6666C6.10734 10.6666 4.42035 11.5794 3.34259 13.0058C3.27665 13.0931 3.2262 13.1599 3.18422 13.2187C3.15236 13.2633 3.13061 13.296 3.11547 13.3209C3.21455 13.3322 3.35574 13.3333 3.61818 13.3333H12.3819C12.6443 13.3333 12.7855 13.3322 12.8846 13.3209C12.8694 13.296 12.8477 13.2633 12.8158 13.2187C12.7739 13.1599 12.7234 13.0931 12.6575 13.0058C11.5797 11.5794 9.89271 10.6666 8.00002 10.6666ZM2.27879 12.202C3.5941 10.4612 5.66594 9.33325 8.00002 9.33325C10.3341 9.33325 12.406 10.4612 13.7213 12.202C13.7272 12.2099 13.7332 12.2178 13.7392 12.2257C13.8523 12.3752 13.9735 12.5356 14.0602 12.6903C14.1651 12.8776 14.2428 13.0942 14.238 13.3576C14.2341 13.5694 14.17 13.7676 14.092 13.9242C14.0141 14.0807 13.8946 14.2514 13.728 14.3822C13.5058 14.5566 13.2639 14.6183 13.0489 14.6441C12.8604 14.6667 12.6369 14.6666 12.4122 14.6666C12.4021 14.6666 12.392 14.6666 12.3819 14.6666H3.61818C3.60805 14.6666 3.59792 14.6666 3.5878 14.6666C3.36313 14.6666 3.13968 14.6667 2.95112 14.6441C2.73619 14.6183 2.49425 14.5566 2.27204 14.3822C2.10541 14.2514 1.98592 14.0807 1.90801 13.9242C1.83009 13.7676 1.76593 13.5694 1.76205 13.3576C1.75724 13.0942 1.83497 12.8776 1.93986 12.6903C2.02652 12.5356 2.14778 12.3752 2.26087 12.2257C2.26687 12.2178 2.27284 12.2099 2.27879 12.202Z" fill="#F5F8FB"/>
</svg>
