<svg viewBox="0 0 16 16" fill="currentColor">
<path fill-rule="evenodd" clip-rule="evenodd" d="M5.33337 0.666748C5.70156 0.666748 6.00004 0.965225 6.00004 1.33341V2.00008H10V1.33341C10 0.965225 10.2985 0.666748 10.6667 0.666748C11.0349 0.666748 11.3334 0.965225 11.3334 1.33341V2.00116C11.6504 2.00334 11.9274 2.00989 12.1679 2.02954C12.5427 2.06016 12.8871 2.12587 13.2107 2.29073C13.7124 2.54639 14.1204 2.95434 14.3761 3.45611C14.5409 3.77966 14.6066 4.12413 14.6372 4.49886C14.6667 4.85966 14.6667 5.30256 14.6667 5.8392V11.4943C14.6667 12.0309 14.6667 12.4738 14.6372 12.8346C14.6066 13.2094 14.5409 13.5538 14.3761 13.8774C14.1204 14.3792 13.7124 14.7871 13.2107 15.0428C12.8871 15.2076 12.5427 15.2733 12.1679 15.304C11.8071 15.3334 11.3642 15.3334 10.8276 15.3334H5.17249C4.63585 15.3334 4.19295 15.3334 3.83216 15.304C3.45743 15.2733 3.11296 15.2076 2.7894 15.0428C2.28763 14.7871 1.87969 14.3792 1.62402 13.8774C1.45916 13.5538 1.39345 13.2094 1.36284 12.8346C1.33336 12.4738 1.33337 12.0309 1.33337 11.4943V5.83921C1.33337 5.30257 1.33336 4.85966 1.36284 4.49886C1.39345 4.12413 1.45916 3.77966 1.62402 3.45611C1.87969 2.95434 2.28763 2.54639 2.7894 2.29073C3.11296 2.12587 3.45743 2.06016 3.83216 2.02954C4.0727 2.00989 4.34973 2.00334 4.66671 2.00116V1.33341C4.66671 0.965225 4.96518 0.666748 5.33337 0.666748ZM4.66671 3.33459C4.36969 3.33668 4.13646 3.34246 3.94073 3.35845C3.64846 3.38233 3.49899 3.42561 3.39472 3.47874C3.14384 3.60657 2.93986 3.81054 2.81203 4.06143C2.75891 4.16569 2.71562 4.31516 2.69174 4.60744C2.66723 4.9075 2.66671 5.29569 2.66671 5.86675V6.00008H13.3334V5.86675C13.3334 5.29569 13.3329 4.9075 13.3083 4.60744C13.2845 4.31516 13.2412 4.16569 13.188 4.06143C13.0602 3.81054 12.8562 3.60657 12.6054 3.47874C12.5011 3.42561 12.3516 3.38233 12.0593 3.35845C11.8636 3.34246 11.6304 3.33668 11.3334 3.33459V4.00008C11.3334 4.36827 11.0349 4.66675 10.6667 4.66675C10.2985 4.66675 10 4.36827 10 4.00008V3.33341H6.00004V4.00008C6.00004 4.36827 5.70156 4.66675 5.33337 4.66675C4.96518 4.66675 4.66671 4.36827 4.66671 4.00008V3.33459ZM13.3334 7.33341H2.66671V11.4667C2.66671 12.0378 2.66723 12.426 2.69174 12.7261C2.71562 13.0183 2.75891 13.1678 2.81203 13.2721C2.93986 13.523 3.14384 13.7269 3.39472 13.8548C3.49899 13.9079 3.64846 13.9512 3.94073 13.975C4.24079 13.9996 4.62899 14.0001 5.20004 14.0001H10.8C11.3711 14.0001 11.7593 13.9996 12.0593 13.975C12.3516 13.9512 12.5011 13.9079 12.6054 13.8548C12.8562 13.7269 13.0602 13.523 13.188 13.2721C13.2412 13.1678 13.2845 13.0183 13.3083 12.7261C13.3329 12.426 13.3334 12.0378 13.3334 11.4667V7.33341Z" fill="#F5F8FB"/>
</svg>
