<svg viewBox="0 0 24 25" fill="currentColor">
<path d="M19.8642 3.16895H4.13221C3.3786 3.16895 2.76923 3.7639 2.76923 4.49947V20.2964C2.76923 21.0319 3.3786 21.6305 4.13221 21.6305H19.8642C20.6178 21.6305 21.2308 21.0319 21.2308 20.3V4.49947C21.2308 3.7639 20.6178 3.16895 19.8642 3.16895ZM8.24639 18.9009H5.50601V10.0884H8.24639V18.9009ZM6.8762 8.8877C5.99639 8.8877 5.28605 8.17736 5.28605 7.30116C5.28605 6.42496 5.99639 5.71462 6.8762 5.71462C7.7524 5.71462 8.46274 6.42496 8.46274 7.30116C8.46274 8.17375 7.7524 8.8877 6.8762 8.8877ZM18.5012 18.9009H15.7644V14.6173C15.7644 13.5968 15.7464 12.2807 14.3401 12.2807C12.9159 12.2807 12.6995 13.3949 12.6995 14.5451V18.9009H9.96634V10.0884H12.5913V11.2927H12.6274C12.9916 10.6004 13.8858 9.86847 15.2163 9.86847C17.9892 9.86847 18.5012 11.693 18.5012 14.0656V18.9009Z" fill="#F5F8FB"/>
</svg>
